Patient4_TMGait_0pt2_02_left_20_EMG.mot
version=1
nRows=26
nColumns=33
inDegrees=no
endheader
time	1LAddLong	2LGlutMax	3LGlutMed	4LIliopsoas	5LSemiMemb	6LBicFemLong	7LRecFem	8LVastMed	9LVastLat	10LGasMed	11LTibAnt	12lTibPost	13LPeroneusLong	14LSol	15LExtDigLong	16LFlexDigLong	17RAddLong	18RGlutMax	19RGlutMed	20RIliopsoas	21RSemiMemb	22RBicFemLong	23RRecFem	24RVastMed	25RVastLat	26RGasMed	27RTibAnt	28RTibPost	29RPeroneusLong	30RSol	31RExtDigLong	32RFlexDigLong
47.63	-0.001068	-0.015869	-0.029907	0.056	-0.01358	0.024719	0.001068	-0.003815	-0.04364	-0.004883	-0.11475	0.00351	0.14618	-0.056915	-0.32028	-0.014954	0.062103	-0.075989	-0.48004	0.050812	-0.010071	-0.024109	-0.028381	0.005646	1.1234	-0.049133	0.24704	-0.17487	0.70938	-0.47562	-0.00061	-0.01236
47.631	-0.002747	0.01709	-0.061493	0.047302	-0.023193	0.013275	0.009918	0.005951	-0.034332	-0.004272	-0.16708	0.001678	0.15198	-0.058136	-0.13534	-0.01709	0.074768	0.015564	-0.62347	0.093689	-0.02533	-0.11932	0.18616	-0.271	1.2506	-0.012512	0.15228	0.17593	-0.51727	-0.58609	-0.002441	-0.002289
47.632	0.000916	0.001373	-0.004272	0.001068	-0.014038	0.017853	0.011597	0.002441	-0.038452	-0.000153	-0.11856	0.006866	0.12466	-0.071106	0.078278	-0.012512	0.085144	0.092316	-0.89035	0.064087	-0.005188	-0.18555	0.13016	-0.24902	1.1037	0.00885	-0.084991	0.24262	-1.5045	-0.39642	-0.000153	-0.010223
47.633	-0.004425	0.014343	0.052032	-0.003052	-0.018158	0.028839	0.028534	0.00946	-0.034332	-0.006409	-0.088348	0.004578	0.10574	-0.05127	-0.069885	-0.004883	0.060577	0.19486	0.017242	-0.1207	-0.008545	-0.25711	-0.22812	-0.18051	0.59006	0.015411	-0.15289	0.10452	-1.2959	0.22385	0.000305	-0.003052
47.634	-0.010223	0.01709	-0.015869	-0.007324	-0.020905	0.007629	0.018158	0.006409	-0.041809	-0.001831	0.011749	0.008087	0.11887	-0.090637	-0.12665	0.000153	0.00412	0.17944	0.57816	-0.22812	-0.089264	-0.17364	-0.33814	0.17181	-0.24323	0.001068	-0.13763	0.044556	-0.52338	0.86197	-0.001678	-0.00824
47.635	-0.006866	0.00412	-0.01297	0.011444	-0.019531	-0.006256	0	0.005188	-0.059052	-0.035095	0.069275	0.010529	0.168	-0.039673	-0.10895	-0.015869	-0.012817	0.095673	1.0611	-0.21332	-0.33112	-0.13046	-0.093231	0.66422	-0.45654	-0.012207	-0.090332	0.023956	0.38223	0.86151	0.002441	-0.014648
47.636	-0.001831	-0.016479	-0.014496	0.010376	-0.019226	-0.018768	0.013275	0.004883	-0.064392	-0.017242	0.089874	0.010071	0.12863	-0.018311	0.059204	-0.007477	-0.012512	-0.038147	0.53879	-0.14557	-0.17746	-0.10269	0.48935	0.78781	-0.48889	-0.009155	-0.14954	0.00885	0.56778	0.44952	-0.001678	-0.007935
47.637	-0.002594	-0.005951	0.032043	-0.00412	-0.013885	-0.002594	0.024872	0.009003	-0.066833	-0.010376	-0.077209	0.003815	0.11963	-0.037079	0.11368	-0.001373	0.013275	-0.055389	0.15045	-0.076141	0.039673	-0.11719	0.46967	0.46951	-0.35034	-0.009613	-0.1416	0.003357	0.021973	0.16708	-0.006866	-0.007019
47.638	0.003967	0.003204	-0.019531	0.002136	-0.011292	0.010529	0.010223	0.000153	-0.059967	-0.016937	-0.053558	0.009155	0.11993	-0.009766	0.087433	-0.013733	-0.017853	-0.052032	-0.27725	-0.071869	0.24963	-0.086823	0.28748	0.35736	-0.14587	-0.013275	-0.054016	-0.011444	0.51376	0.22537	-0.001678	-0.007935
47.639	-0.001678	0.007477	-0.041351	-0.006104	-0.007172	0.024567	0.014648	-0.000305	-0.06424	-0.035858	-0.01709	0.001984	0.15198	-0.015411	0.03479	-0.010986	-0.060577	-0.037994	-0.55817	-0.059052	0.14832	-0.07782	-0.002289	0.28488	-0.01236	0.000305	-0.092163	-0.021057	1.6151	0.19898	-0.00061	0.00351
47.64	0.002136	-0.004425	-0.031891	-0.02182	-0.006561	0.030365	0.031891	-0.001373	-0.068817	-0.0177	0.029297	0.009918	0.16449	-0.036163	0.042725	0.00946	-0.082245	-0.023193	-0.7695	0.03006	0.10696	-0.016327	-0.25803	0.097961	0.035095	-0.00061	-0.036621	-0.022125	0.58777	0.15732	0.002899	-0.014038
47.641	0.00885	0.000763	0.019073	-0.007782	-0.014954	0.021973	0.012665	0.000763	-0.082092	-0.00885	0.006866	0.00946	0.14832	-0.048828	0.067444	-0.008392	-0.083466	-0.013123	-0.91644	0.16846	0.049286	0.041809	-0.73288	-0.34363	0.10407	-0.00061	0.00824	-0.025482	-0.1796	0.058136	-0.002441	-0.010071
47.642	0.003815	-0.003052	-0.000916	-0.014343	-0.005188	0.015259	0.019379	-0.002747	-0.081635	-0.014038	0.023041	0.009308	0.13916	-0.06485	0.099945	-0.006866	-0.068207	-0.039673	-0.78659	0.1268	0.066528	0.10117	-0.83221	-0.45746	0.18021	0.008698	0.048828	-0.031891	-0.33279	-0.050507	0.010223	-0.022888
47.643	0.002594	0.003815	0.0354	0.003815	-0.00061	0.007019	0.032196	-0.001221	-0.087128	-0.010986	0.012665	0.007782	0.14618	-0.048828	0.15625	-0.00824	-0.007782	-0.039673	-0.25223	0.085602	-0.049438	0.068359	-0.19516	-0.2243	-0.32181	0.040741	0.023499	-0.041046	-0.58334	-0.10544	-0.001526	-0.003662
47.644	0.006561	0.014496	0.011902	0.01709	-0.015106	0.046082	0.03006	0.002441	-0.092468	-0.019989	0.035553	0.005798	0.15335	-0.020142	0.15213	0.000153	0.035553	-0.051575	1.778	-0.021057	-0.23483	0.062866	0.071869	-0.26474	-0.37033	0.063171	0.020142	-0.032196	-0.76828	-0.087433	-0.000305	-0.007477
47.645	0.008698	-0.002136	-0.001984	0.02594	-0.020294	0.04303	0.031586	0.006714	-0.098877	-0.020447	0.003967	0.005188	0.15076	-0.028992	0.08194	-0.003204	0.023499	-0.045624	1.4302	0.033569	-0.36407	0.080872	0.17487	0.15533	-0.18997	0.063934	0.001526	0.006104	-0.30914	-0.29159	-0.006409	-0.003357
47.646	-0.003204	-0.033417	-0.009613	0.043945	-0.019379	0.036469	0.029602	0.006104	-0.093689	-0.011292	0.010834	0.005341	0.12436	-0.011749	-0.001984	-0.016174	0.005493	-0.043335	0.21072	0.060577	0.24323	-0.00061	0.12009	-0.095673	-0.025024	0.019379	0.047455	-0.050354	0.35233	-0.504	-0.00412	-0.005493
47.647	0.008698	-0.032501	-0.022278	0.028687	-0.015564	0.028992	0.014343	0.006104	-0.10056	-0.016174	0.061951	0.010681	0.12604	-0.018311	-0.024567	-0.003052	0.025482	-0.075836	-0.16586	0.038757	0.20493	-0.029449	0.26962	-0.20157	0.085754	-0.035858	0.099182	-0.10559	-0.16312	-0.55542	-0.001373	-0.004272
47.648	-0.001526	-0.00412	-0.028839	0.005188	-0.00946	0.036774	0.02533	0.002594	-0.10071	-0.021362	0.071259	0.010529	0.13962	-0.021667	-0.007629	-0.007782	0.006866	-0.027924	0.10101	0.079651	0.079193	-0.026398	0.33783	0.14618	0.40924	-0.080414	0.11612	-0.49759	-0.78323	-0.70496	-0.005493	-0.003052
47.649	0.00061	-0.001678	0.011902	-0.014343	-0.010529	0.021667	0.012512	0.00412	-0.095062	-0.010986	0.050507	-0.001678	0.13611	-0.017853	0.004425	-0.005493	-0.003662	0.028534	0.71564	0.082855	0.019836	0.028381	0.16464	0.38528	0.66223	-0.10086	0.081787	0.013733	-0.67581	-1.125	-0.006409	-0.028992
47.65	0.005493	0.039063	0.01709	0.017395	-0.009003	0.022583	0.019226	0.007782	-0.084381	-0.012817	0.076752	-0.00412	0.12344	-0.009308	0.060425	-0.011597	0.03006	0.17807	-0.009003	0.06424	0.055084	0.032806	-0.15015	0.9993	0.76141	-0.096741	-0.026245	0.26566	0.45654	-0.69122	-0.002136	-0.033722
47.651	0.009155	0.007324	0.00473	0.016632	-0.006409	0.031891	0.018158	-0.000763	-0.070648	-0.007172	0.00412	0.00885	0.12665	0.008392	0.081024	-0.003967	0.030823	0.21133	-0.47836	-0.005798	0.12573	0.046387	-0.18402	1.0941	0.50995	-0.046082	-0.084381	0.20004	1.246	-0.62729	-0.006409	-0.037231
47.652	0.008545	-0.02182	-0.054932	0.025024	-0.015411	0.032196	0.012512	0.003357	-0.062408	-0.017395	-0.11398	0.007324	0.13138	-0.007935	0.003662	-0.014801	0.065155	0.19348	-0.69244	0.031281	0.018005	-0.034637	-0.0914	0.70648	-0.14008	-0.005341	-0.056152	0.25986	0.87585	-0.24262	-0.006714	-0.020142
47.653	0.012207	-0.026093	-0.10864	-0.020142	-0.012512	0.036469	0.005341	-0.001221	-0.056458	-0.016785	-0.097656	0.006561	0.097198	-0.049133	0.00412	-0.005035	0.085144	0.13962	-0.40115	0.016479	0.10407	-0.16464	0.43991	-0.32181	-0.49164	0.028992	-0.072174	-0.031586	0.29541	0.52048	0.003204	-0.009308
47.654	0.006409	-0.023956	-0.1445	-0.028381	-0.016022	0.017548	0.025177	-0.001831	-0.038757	-0.017242	-0.054626	0.010376	0.084991	-0.068817	0.02243	-0.013275	0.069427	0.17029	-0.37247	-0.033875	-0.000916	-0.11902	0.40466	-1.6855	-0.2269	0.016937	0.001831	-0.001678	0.005035	1.1134	-0.003967	-0.011139
47.655	0.010834	0.008392	-0.085297	-0.030365	-0.007629	0.003204	0.016785	0.000763	-0.035858	-0.028381	-0.025635	0.009613	0.13779	-0.049438	-0.013428	-0.006104	0.025024	0.20721	0.045471	-0.061035	-0.40482	0.008545	0.14618	-2.0308	-0.073242	-0.003662	0.040131	0.14191	0.31082	0.82413	-0.006714	-0.014954
